<svg width="24" height="24" viewBox="0 0 24 24" fill="none" xmlns="http://www.w3.org/2000/svg">
<path fill-rule="evenodd" clip-rule="evenodd" d="M17.3655 4.85682C16.0863 3.74364 14.147 3.8782 13.0338 5.15735L9.75258 8.92783C10.3497 9.94111 10.8924 10.6689 11.5106 11.2486C12.4598 10.4688 13.6756 10.0001 15.0001 10.0001C15.6003 10.0001 16.179 10.0964 16.7208 10.2747L17.666 9.18852C18.7792 7.90936 18.6447 5.96999 17.3655 4.85682ZM4.46672 13.4785L12.2794 4.50089C13.7552 2.80511 16.3262 2.62673 18.022 4.10247C19.7177 5.5782 19.8961 8.14921 18.4204 9.84499L17.0154 11.4595L16.6849 11.3259C16.1652 11.1159 15.5968 11.0001 15.0001 11.0001C13.7573 11.0001 12.633 11.5032 11.8181 12.3181C11.0032 13.133 10.5001 14.2573 10.5001 15.5001C10.5001 16.3184 10.7181 17.0843 11.0988 17.7445L11.277 18.0535L11.0429 18.3226C10.2845 19.194 9.28863 19.8798 8.1977 20.1182C7.08612 20.3611 5.90914 20.1296 4.86515 19.2211C3.16937 17.7453 2.99099 15.1743 4.46672 13.4785Z" fill="#465FFF"/>
<path fill-rule="evenodd" clip-rule="evenodd" d="M16.4446 5.61062C16.5136 5.34324 16.3527 5.07055 16.0854 5.00157C14.4964 4.59163 13.5269 5.70696 13.1403 6.15182C13.1344 6.15862 13.1286 6.16527 13.123 6.17174C12.9417 6.38005 12.9636 6.69588 13.1719 6.87716C13.3802 7.05843 13.696 7.03652 13.8773 6.82821C14.2841 6.36078 14.872 5.7213 15.8355 5.96987C16.1029 6.03885 16.3756 5.87801 16.4446 5.61062Z" fill="#465FFF"/>
<path fill-rule="evenodd" clip-rule="evenodd" d="M15 11C12.5147 11 10.5 13.0147 10.5 15.5C10.5 17.9853 12.5147 20 15 20C17.4853 20 19.5 17.9853 19.5 15.5C19.5 13.0147 17.4853 11 15 11ZM9.5 15.5C9.5 12.4624 11.9624 10 15 10C18.0376 10 20.5 12.4624 20.5 15.5C20.5 18.5376 18.0376 21 15 21C11.9624 21 9.5 18.5376 9.5 15.5Z" fill="#465FFF"/>
<path fill-rule="evenodd" clip-rule="evenodd" d="M11.1362 16.5352C11.0648 16.2685 11.2231 15.9943 11.4898 15.9228L18.2513 14.1111C18.518 14.0396 18.7922 14.1979 18.8637 14.4647C18.9351 14.7314 18.7768 15.0056 18.5101 15.077L11.7486 16.8888C11.4819 16.9602 11.2077 16.8019 11.1362 16.5352Z" fill="#465FFF"/>
</svg>
