<svg width="26" height="24" viewBox="0 0 26 24" fill="none" xmlns="http://www.w3.org/2000/svg">
<path d="M15.0022 3.90719V2.10879C15.0022 1.50031 15.4954 1 16.0953 1H17.8683C18.4681 1 18.9614 1.50031 18.9614 2.10879V3.90719" stroke="#465FFF" stroke-miterlimit="10" stroke-linecap="round" stroke-linejoin="round"/>
<path d="M16.9883 7.26062C18.2252 7.26062 19.2279 6.24356 19.2279 4.98895C19.2279 3.73434 18.2252 2.71729 16.9883 2.71729C15.7515 2.71729 14.7488 3.73434 14.7488 4.98895C14.7488 6.24356 15.7515 7.26062 16.9883 7.26062Z" stroke="#465FFF" stroke-miterlimit="10" stroke-linecap="round" stroke-linejoin="round"/>
<path d="M4.07108 12.2638C5.30794 12.2638 6.31062 11.2467 6.31062 9.99213C6.31062 8.73752 5.30794 7.72046 4.07108 7.72046C2.83422 7.72046 1.83154 8.73752 1.83154 9.99213C1.83154 11.2467 2.83422 12.2638 4.07108 12.2638Z" stroke="#465FFF" stroke-miterlimit="10" stroke-linecap="round" stroke-linejoin="round"/>
<path d="M18.3303 6.00269L18.22 6.20874L17.5852 6.62573H16.3879L15.6487 6.10132L15.5999 6.00269H18.3303Z" fill="#0079AB" stroke="#465FFF"/>
<path d="M11.7361 19.7953C11.4295 19.7953 11.1229 19.6872 10.8829 19.4979L3.49778 13.724C2.87125 13.2237 1.95144 13.3454 1.45821 13.9945L1.29824 14.1973C0.81834 14.8328 0.924985 15.7658 1.56485 16.2661L9.66984 22.5944C10.0031 22.8648 10.4164 23 10.8429 23H23.4137C23.8536 23 24.2402 22.8242 24.5334 22.5267C24.8134 22.2428 25 21.8371 25 21.3909C25 20.512 24.2935 19.7818 23.4137 19.7818H11.7361V19.7953Z" stroke="#465FFF" stroke-miterlimit="10" stroke-linecap="round" stroke-linejoin="round"/>
<path d="M11.0561 19.5656C11.1761 19.6602 11.3361 19.7143 11.496 19.7143L15.3886 19.7954C15.6152 19.7954 15.8418 19.7414 16.0418 19.6467L18.2413 18.592C18.5746 18.4297 18.9612 18.3892 19.3211 18.4974L23.6402 19.6738C24.0668 19.7954 24.52 19.6061 24.7466 19.214C25.0532 18.6867 24.8266 18.0106 24.2667 17.7807L19.0012 15.5631C18.5746 15.3873 18.108 15.3873 17.6814 15.5496L14.762 16.699C14.6687 16.7395 14.5621 16.753 14.4688 16.753H12.1226C11.8693 16.753 11.616 16.6719 11.4161 16.5096L7.39022 13.3726C7.15027 13.1833 6.857 13.0886 6.56373 13.0886C6.16381 13.0886 5.76389 13.2779 5.49728 13.616C5.04404 14.2109 5.15069 15.0628 5.73723 15.5225L11.0561 19.5656Z" stroke="#465FFF" stroke-miterlimit="10" stroke-linecap="round" stroke-linejoin="round"/>
<path d="M8.76343 14.4272L13.6291 9.42416C14.0023 9.03202 14.5222 8.81567 15.0688 8.81567H19.0146C19.5479 8.81567 20.0678 9.03202 20.4543 9.42416L23.8403 12.9128C24.1336 13.2103 24.1869 13.6835 23.9603 14.0351L22.1607 16.8747" stroke="#465FFF" stroke-miterlimit="10" stroke-linecap="round" stroke-linejoin="round"/>
<path d="M19.4011 12.0474L20.4678 13.2102C20.7478 13.5077 20.7745 13.9675 20.5478 14.3055L19.5478 15.7794" stroke="#465FFF" stroke-miterlimit="10" stroke-linecap="round" stroke-linejoin="round"/>
<path d="M10.7229 15.9552L14.0022 12.4801C14.1489 12.3313 14.4021 12.426 14.4021 12.6423V16.753" stroke="#465FFF" stroke-miterlimit="10" stroke-linecap="round" stroke-linejoin="round"/>
</svg>
