<svg width="25" height="25" viewBox="0 0 25 25" fill="none" xmlns="http://www.w3.org/2000/svg">
<g clip-path="url(#clip0_391_876)">
<path d="M17.1921 21.1953V19.1953C17.1921 18.1345 16.7707 17.117 16.0206 16.3669C15.2704 15.6168 14.253 15.1953 13.1921 15.1953H5.19214C4.13127 15.1953 3.11386 15.6168 2.36371 16.3669C1.61357 17.117 1.19214 18.1345 1.19214 19.1953V21.1953" stroke="#2579D1" stroke-width="2" stroke-linecap="round" stroke-linejoin="round"/>
<path d="M9.19214 11.1953C11.4013 11.1953 13.1921 9.40447 13.1921 7.19533C13.1921 4.98619 11.4013 3.19533 9.19214 3.19533C6.983 3.19533 5.19214 4.98619 5.19214 7.19533C5.19214 9.40447 6.983 11.1953 9.19214 11.1953Z" stroke="#2579D1" stroke-width="2" stroke-linecap="round" stroke-linejoin="round"/>
<path d="M23.1921 21.1953V19.1953C23.1915 18.3091 22.8965 17.4481 22.3535 16.7476C21.8105 16.0472 21.0503 15.5469 20.1921 15.3253" stroke="#2579D1" stroke-width="2" stroke-linecap="round" stroke-linejoin="round"/>
<path d="M16.1921 3.32533C17.0526 3.54563 17.8152 4.04603 18.3598 4.74764C18.9044 5.44925 19.2 6.31216 19.2 7.20033C19.2 8.0885 18.9044 8.95141 18.3598 9.65302C17.8152 10.3546 17.0526 10.855 16.1921 11.0753" stroke="#2579D1" stroke-width="2" stroke-linecap="round" stroke-linejoin="round"/>
</g>
<defs>
<clipPath id="clip0_391_876">
<rect width="24" height="24" fill="white" transform="translate(0.192139 0.195328)"/>
</clipPath>
</defs>
</svg>
